<svg xmlns="http://www.w3.org/2000/svg" version="1.1" xmlns:xlink="http://www.w3.org/1999/xlink" xmlns:svgjs="http://svgjs.dev/svgjs" width="1500" height="1500" viewBox="0 0 1500 1500"><rect width="1500" height="1500" fill="#92004e"></rect><g transform="matrix(0.6666666666666666,0,0,0.6666666666666666,248.85814515556166,304.2333333333333)"><svg viewBox="0 0 279 248" data-background-color="#92004e" preserveAspectRatio="xMidYMid meet" height="1333" width="1500" xmlns="http://www.w3.org/2000/svg" xmlns:xlink="http://www.w3.org/1999/xlink"><g id="tight-bounds" transform="matrix(1,0,0,1,0.31857750159829834,0.4000000000000057)"><svg viewBox="0 0 278.3628449968034 247.2" height="247.2" width="278.3628449968034"><g><svg viewBox="0 0 397.4976 352.99756589687246" height="247.2" width="278.3628449968034"><g><rect width="397.4976" height="7.37313256305929" x="0" y="187.55369510853308" fill="#ff2499" opacity="1" stroke-width="0" stroke="transparent" fill-opacity="1" class="rect-yte-0" data-fill-palette-color="primary" rx="1%" id="yte-0" data-palette-color="#ff2499"></rect></g><g><rect width="397.4976" height="7.37313256305929" x="0" y="204.57752474365952" fill="#ff2499" opacity="1" stroke-width="0" stroke="transparent" fill-opacity="1" class="rect-yte-1" data-fill-palette-color="primary" rx="1%" id="yte-1" data-palette-color="#ff2499"></rect></g><g transform="matrix(1,0,0,1,0.9887999999999693,231.2520514508531)"><svg viewBox="0 0 395.52000000000004 121.74551444601938" height="121.74551444601938" width="395.52000000000004"><g id="textblocktransform"><svg viewBox="0 0 395.52000000000004 121.74551444601938" height="121.74551444601938" width="395.52000000000004" id="textblock"><g><svg viewBox="0 0 395.52000000000004 81.75923916083916" height="81.75923916083916" width="395.52000000000004"><g transform="matrix(1,0,0,1,0,0)"><svg width="395.52000000000004" viewBox="-1.2 -36.15 178.73 36.949999999999996" height="81.75923916083916" data-palette-color="#ff2499"><path d="M13.75 0.5L1.45-30.2Q1.25-30.3 0.8-30.48 0.35-30.65-0.1-30.83-0.55-31-0.88-31.23-1.2-31.45-1.2-31.7L-1.2-31.7Q-1.2-32-1.03-32.45-0.85-32.9-0.25-32.9L-0.25-32.9 8.05-32.9Q8.95-32.9 9.35-32.48 9.75-32.05 9.75-31.8L9.75-31.8Q9.75-31.3 9.3-31.05 8.85-30.8 8.28-30.68 7.7-30.55 7.13-30.45 6.55-30.35 6.25-30.2L6.25-30.2 15.6-5.7 24.25-30.15Q23.9-30.3 23.3-30.43 22.7-30.55 22.1-30.73 21.5-30.9 21.05-31.13 20.6-31.35 20.6-31.7L20.6-31.7Q20.6-32 20.78-32.45 20.95-32.9 21.55-32.9L21.55-32.9 29.35-32.9Q30.25-32.9 30.55-32.48 30.85-32.05 30.85-31.8L30.85-31.8Q30.85-31.3 30.6-31.13 30.35-30.95 29.9-30.85L29.9-30.85Q28.9-30.6 28.45-30.48 28-30.35 27.6-29.65L27.6-29.65 15.8 0.5 13.75 0.5ZM31.85-1L31.85-1Q31.85-1.25 32.25-1.5 32.65-1.75 33.2-1.98 33.75-2.2 34.27-2.38 34.8-2.55 35.1-2.7L35.1-2.7 35.1-19Q34.6-19.1 34.02-19.28 33.45-19.45 32.97-19.65 32.5-19.85 32.17-20.05 31.85-20.25 31.85-20.45L31.85-20.45Q31.85-20.95 32.45-21.48 33.05-22 33.95-22.4 34.85-22.8 35.85-23.08 36.85-23.35 37.65-23.35L37.65-23.35Q38.1-23.35 38.65-23.25 39.2-23.15 39.3-22.85L39.3-22.85 39.3-3.7Q39.3-2.95 39.85-2.68 40.4-2.4 41.05-2.25 41.7-2.1 42.25-1.9 42.8-1.7 42.8-1.1L42.8-1.1Q42.8 0 41.1 0L41.1 0 32.8 0Q32.2 0 32.02-0.35 31.85-0.7 31.85-1ZM37.2-27.7L37.2-27.7Q36.1-27.7 35.35-27.98 34.6-28.25 34.2-28.6 33.8-28.95 33.62-29.3 33.45-29.65 33.45-29.8L33.45-29.8Q33.45-30.2 33.7-30.75 33.95-31.3 34.35-31.78 34.75-32.25 35.25-32.58 35.75-32.9 36.25-32.9L36.25-32.9Q38.45-32.9 39.3-32.1 40.15-31.3 40.15-30.6L40.15-30.6Q40.15-30.15 39.87-29.65 39.6-29.15 39.17-28.73 38.75-28.3 38.22-28 37.7-27.7 37.2-27.7ZM47.8-2.85L47.8-20.1 45.7-20.1Q45.45-20.2 45.37-20.45 45.3-20.7 45.3-20.9L45.3-20.9Q45.3-21.4 45.55-21.58 45.8-21.75 46.2-21.98 46.6-22.2 47.12-22.6 47.65-23 48.2-23.9L48.2-23.9Q48.55-24.55 48.75-25.48 48.95-26.4 49.17-27.25 49.4-28.1 49.72-28.7 50.05-29.3 50.6-29.3L50.6-29.3Q51-29.3 51.47-29.25 51.95-29.2 52.15-29.1L52.15-29.1 52.15-22.9 56.9-22.9Q57.55-22.9 57.72-22.65 57.9-22.4 57.9-22L57.9-22Q57.9-21.4 57.47-20.78 57.05-20.15 56.35-20.1L56.35-20.1 52.15-20.1 52.15-7.35Q52.15-5.55 52.2-4.55 52.25-3.55 52.47-3.05 52.7-2.55 53.17-2.43 53.65-2.3 54.55-2.3L54.55-2.3Q55.25-2.3 56.02-2.58 56.8-2.85 57.65-2.85L57.65-2.85Q58.4-2.85 58.5-2.48 58.6-2.1 58.6-2L58.6-2Q58.6-1.4 57.85-0.9 57.1-0.4 55.97-0.05 54.85 0.3 53.5 0.48 52.15 0.65 51 0.65L51 0.65Q49.75 0.65 48.77-0.25 47.8-1.15 47.8-2.85L47.8-2.85ZM61.69-5.05L61.69-5.05Q61.69-7.3 62.84-8.85 63.99-10.4 65.89-11.43 67.79-12.45 70.22-13 72.64-13.55 75.19-13.75L75.19-13.75 75.19-14.85Q75.19-16.05 75.04-17.25 74.89-18.45 74.34-19.45L74.34-19.45Q73.74-20.45 72.72-20.73 71.69-21 70.69-21L70.69-21Q69.34-21 68.59-20.93 67.84-20.85 67.47-20.65 67.09-20.45 67.02-20.08 66.94-19.7 66.94-19.05L66.94-19.05Q66.94-18.35 67.12-18.18 67.29-18 67.29-17.75L67.29-17.75Q67.29-17.35 66.97-16.93 66.64-16.5 66.17-16.18 65.69-15.85 65.12-15.65 64.54-15.45 64.04-15.45L64.04-15.45Q62.89-15.45 62.64-16.13 62.39-16.8 62.39-17.3L62.39-17.3Q62.39-18.5 63.57-19.65 64.74-20.8 66.42-21.75 68.09-22.7 69.89-23.28 71.69-23.85 72.94-23.85L72.94-23.85Q75.04-23.85 76.37-23.2 77.69-22.55 78.39-21.5 79.09-20.45 79.34-19.13 79.59-17.8 79.59-16.45L79.59-16.45 79.59-2.15Q80.14-2.15 80.74-2.38 81.34-2.6 81.94-2.6L81.94-2.6Q82.49-2.6 82.67-2.4 82.84-2.2 82.84-1.85L82.84-1.85Q82.84-1.65 82.44-1.23 82.04-0.8 81.32-0.35 80.59 0.1 79.64 0.45 78.69 0.8 77.54 0.8L77.54 0.8Q76.59 0.8 75.89 0.4 75.19 0 75.19-0.95L75.19-0.95 75.19-2.85Q73.89-1.25 72.34-0.23 70.79 0.8 68.59 0.8L68.59 0.8Q66.74 0.8 65.42 0.25 64.09-0.3 63.27-1.18 62.44-2.05 62.07-3.08 61.69-4.1 61.69-5.05ZM66.39-6.7L66.39-6.7Q66.39-4.7 67.39-3.35 68.39-2 71.09-2L71.09-2Q72.09-2 73.22-2.75 74.34-3.5 75.19-4.7L75.19-4.7 75.19-11.45Q73.79-11.4 72.24-11.18 70.69-10.95 69.39-10.45 68.09-9.95 67.24-9.05 66.39-8.15 66.39-6.7ZM85.94-1.2L85.94-1.2Q85.94-1.5 86.34-1.73 86.74-1.95 87.27-2.13 87.79-2.3 88.34-2.45 88.89-2.6 89.14-2.75L89.14-2.75 89.14-30.15Q88.89-30.3 88.34-30.43 87.79-30.55 87.27-30.75 86.74-30.95 86.34-31.18 85.94-31.4 85.94-31.7L85.94-31.7Q85.94-32 86.12-32.45 86.29-32.9 86.89-32.9L86.89-32.9 95.49-32.9Q96.39-32.9 96.79-32.48 97.19-32.05 97.19-31.8L97.19-31.8Q97.19-31.2 96.64-30.98 96.09-30.75 95.42-30.6 94.74-30.45 94.17-30.23 93.59-30 93.54-29.4L93.54-29.4 93.54-2.35Q94.69-2.35 96.27-2.38 97.84-2.4 99.39-2.48 100.94-2.55 102.19-2.75 103.44-2.95 103.89-3.25L103.89-3.25Q104.29-3.7 104.64-4.73 104.99-5.75 105.29-6.8 105.59-7.85 105.82-8.7 106.04-9.55 106.19-9.6L106.19-9.6Q106.39-9.7 106.69-9.8 106.99-9.9 107.29-9.9L107.29-9.9Q107.99-9.9 108.07-9.35 108.14-8.8 108.14-7.65L108.14-7.65Q108.14-6.55 108.07-5.23 107.99-3.9 107.84-2.75 107.69-1.6 107.52-0.8 107.34 0 107.14 0L107.14 0 86.89 0Q86.29 0 86.12-0.45 85.94-0.9 85.94-1.2ZM111.89-1L111.89-1Q111.89-1.25 112.29-1.5 112.69-1.75 113.24-1.98 113.79-2.2 114.31-2.38 114.84-2.55 115.14-2.7L115.14-2.7 115.14-19Q114.64-19.1 114.06-19.28 113.49-19.45 113.01-19.65 112.54-19.85 112.21-20.05 111.89-20.25 111.89-20.45L111.89-20.45Q111.89-20.95 112.49-21.48 113.09-22 113.99-22.4 114.89-22.8 115.89-23.08 116.89-23.35 117.69-23.35L117.69-23.35Q118.14-23.35 118.69-23.25 119.24-23.15 119.34-22.85L119.34-22.85 119.34-3.7Q119.34-2.95 119.89-2.68 120.44-2.4 121.09-2.25 121.74-2.1 122.29-1.9 122.84-1.7 122.84-1.1L122.84-1.1Q122.84 0 121.14 0L121.14 0 112.84 0Q112.24 0 112.06-0.35 111.89-0.7 111.89-1ZM117.24-27.7L117.24-27.7Q116.14-27.7 115.39-27.98 114.64-28.25 114.24-28.6 113.84-28.95 113.66-29.3 113.49-29.65 113.49-29.8L113.49-29.8Q113.49-30.2 113.74-30.75 113.99-31.3 114.39-31.78 114.79-32.25 115.29-32.58 115.79-32.9 116.29-32.9L116.29-32.9Q118.49-32.9 119.34-32.1 120.19-31.3 120.19-30.6L120.19-30.6Q120.19-30.15 119.91-29.65 119.64-29.15 119.21-28.73 118.79-28.3 118.26-28 117.74-27.7 117.24-27.7ZM125.89-1L125.89-1Q125.89-1.25 126.21-1.48 126.54-1.7 126.99-1.9 127.44-2.1 127.89-2.27 128.34-2.45 128.54-2.55L128.54-2.55 128.54-19Q127.54-19.2 126.49-19.65 125.44-20.1 125.44-20.45L125.44-20.45Q125.44-20.95 126.04-21.48 126.64-22 127.51-22.4 128.39-22.8 129.39-23.08 130.39-23.35 131.14-23.35L131.14-23.35Q132.24-23.35 132.34-22.85L132.34-22.85 132.34-20.3Q134.09-21.85 136.11-22.85 138.14-23.85 140.69-23.85L140.69-23.85Q142.44-23.85 143.76-23.38 145.09-22.9 146.09-21.6L146.09-21.6Q147.09-20.3 147.36-19.03 147.64-17.75 147.64-16.45L147.64-16.45 147.64-3.4Q147.64-2.8 148.11-2.58 148.59-2.35 149.14-2.2 149.69-2.05 150.14-1.85 150.59-1.65 150.59-1.1L150.59-1.1Q150.59-0.85 150.19-0.43 149.79 0 148.89 0L148.89 0 141.64 0Q141.04 0 140.86-0.35 140.69-0.7 140.69-1L140.69-1Q140.69-1.25 141.01-1.48 141.34-1.7 141.76-1.9 142.19-2.1 142.61-2.27 143.04-2.45 143.24-2.55L143.24-2.55 143.24-14.55Q143.24-18.05 141.96-19.5 140.69-20.95 138.74-20.95L138.74-20.95Q137.24-20.95 135.61-20.38 133.99-19.8 132.84-18.75L132.84-18.75 132.84-3.7Q132.84-2.95 133.36-2.68 133.89-2.4 134.54-2.25 135.19-2.1 135.71-1.9 136.24-1.7 136.24-1.1L136.24-1.1Q136.24 0 134.54 0L134.54 0 126.84 0Q126.24 0 126.06-0.35 125.89-0.7 125.89-1ZM152.43-1L152.43-1Q152.43-1.25 152.76-1.48 153.08-1.7 153.53-1.9 153.98-2.1 154.43-2.27 154.88-2.45 155.08-2.55L155.08-2.55 155.08-32.95Q153.98-33.1 153.28-33.4 152.58-33.7 152.58-34L152.58-34Q152.58-34.7 153.16-35.1 153.73-35.5 154.61-35.75 155.48-36 156.46-36.08 157.43-36.15 158.18-36.15L158.18-36.15Q158.58-36.15 158.91-36.1 159.23-36.05 159.33-35.7L159.33-35.7 159.33-11.1 167.78-20.6Q167.33-20.7 166.78-20.78 166.23-20.85 165.78-21 165.33-21.15 165.01-21.35 164.68-21.55 164.68-21.8L164.68-21.8Q164.68-22.1 164.96-22.5 165.23-22.9 165.78-22.9L165.78-22.9 173.33-22.9Q174.18-22.9 174.53-22.73 174.88-22.55 174.88-22.3L174.88-22.3Q174.88-21.45 174.08-21.08 173.28-20.7 172.33-20.6L172.33-20.6 165.98-14.4 173.48-3.15Q173.78-2.8 174.46-2.6 175.13-2.4 175.81-2.23 176.48-2.05 177.01-1.83 177.53-1.6 177.53-1.1L177.53-1.1Q177.53-0.85 177.13-0.43 176.73 0 175.83 0L175.83 0 167.73 0Q167.13 0 166.96-0.35 166.78-0.7 166.78-1L166.78-1Q166.78-1.45 167.38-1.65L167.38-1.65 168.88-2.3 163.08-11.6 159.33-7.85 159.33-3.7Q159.33-2.95 159.86-2.68 160.38-2.4 161.03-2.25 161.68-2.1 162.21-1.9 162.73-1.7 162.73-1.1L162.73-1.1Q162.73 0 161.03 0L161.03 0 153.38 0Q152.78 0 152.61-0.35 152.43-0.7 152.43-1Z" opacity="1" transform="matrix(1,0,0,1,0,0)" fill="#ff2499" class="wordmark-text-0" data-fill-palette-color="primary" id="text-0"></path></svg></g></svg></g><g transform="matrix(1,0,0,1,0,101.06063330497342)"><svg viewBox="0 0 395.52000000000004 20.68488114104596" height="20.68488114104596" width="395.52000000000004"><g transform="matrix(1,0,0,1,0,0)"><svg width="395.52000000000004" viewBox="1.2 -35.7 694.02 36.300000000000004" height="20.68488114104596" data-palette-color="#ffccea"><path d="M12.65 0L8.3 0 1.2-32.85 5.05-32.85 8.65-14.6Q9.15-11.95 9.65-9.28 10.15-6.6 10.65-3.95L10.65-3.95 10.85-3.95Q11.4-6.6 12.03-9.28 12.65-11.95 13.2-14.6L13.2-14.6 17.95-32.85 21.35-32.85 26.05-14.6Q26.7-11.95 27.3-9.3 27.9-6.65 28.5-3.95L28.5-3.95 28.7-3.95Q29.2-6.65 29.68-9.3 30.15-11.95 30.65-14.6L30.65-14.6 34.25-32.85 37.85-32.85 30.9 0 26.5 0 21.25-20.45Q20.85-22.4 20.45-24.2 20.05-26 19.65-27.9L19.65-27.9 19.45-27.9Q19.05-26 18.63-24.2 18.2-22.4 17.75-20.45L17.75-20.45 12.65 0ZM46.95 0L43.35 0 43.35-35.7 46.95-35.7 46.95-25.8 46.85-20.7Q48.6-22.45 50.55-23.65 52.5-24.85 54.95-24.85L54.95-24.85Q58.8-24.85 60.57-22.45 62.35-20.05 62.35-15.4L62.35-15.4 62.35 0 58.7 0 58.7-14.95Q58.7-18.45 57.57-20.05 56.45-21.65 53.9-21.65L53.9-21.65Q51.95-21.65 50.42-20.68 48.9-19.7 46.95-17.75L46.95-17.75 46.95 0ZM79.94 0.6L79.94 0.6Q76.75 0.6 74.14-0.93 71.55-2.45 70-5.28 68.44-8.1 68.44-12.1L68.44-12.1Q68.44-16 70-18.88 71.55-21.75 74.02-23.3 76.5-24.85 79.3-24.85L79.3-24.85Q82.3-24.85 84.44-23.45 86.59-22.05 87.72-19.53 88.84-17 88.84-13.5L88.84-13.5Q88.84-12.95 88.8-12.35 88.75-11.75 88.64-11.3L88.64-11.3 71.3-11.3 71.25-13.95 85.59-13.95Q85.59-17.85 83.94-19.88 82.3-21.9 79.34-21.9L79.34-21.9Q77.55-21.9 75.84-20.88 74.14-19.85 73.05-17.68 71.94-15.5 71.94-12.1L71.94-12.1Q71.94-8.85 73.09-6.7 74.25-4.55 76.17-3.45 78.09-2.35 80.39-2.35L80.39-2.35Q82.19-2.35 83.69-2.9 85.19-3.45 86.55-4.3L86.55-4.3 87.89-1.9Q86.34-0.9 84.42-0.15 82.5 0.6 79.94 0.6ZM98.54 0L94.94 0 94.94-24.25 97.94-24.25 98.24-19.8 98.39-19.8Q99.64-22.1 101.42-23.48 103.19-24.85 105.29-24.85L105.29-24.85Q106.04-24.85 106.64-24.73 107.24-24.6 107.79-24.35L107.79-24.35 107.09-21.15Q106.49-21.35 106.02-21.45 105.54-21.55 104.79-21.55L104.79-21.55Q103.24-21.55 101.54-20.28 99.84-19 98.54-15.8L98.54-15.8 98.54 0ZM121.54 0.6L121.54 0.6Q118.34 0.6 115.74-0.93 113.14-2.45 111.59-5.28 110.04-8.1 110.04-12.1L110.04-12.1Q110.04-16 111.59-18.88 113.14-21.75 115.61-23.3 118.09-24.85 120.89-24.85L120.89-24.85Q123.89-24.85 126.04-23.45 128.19-22.05 129.31-19.53 130.44-17 130.44-13.5L130.44-13.5Q130.44-12.95 130.39-12.35 130.34-11.75 130.24-11.3L130.24-11.3 112.89-11.3 112.84-13.95 127.19-13.95Q127.19-17.85 125.54-19.88 123.89-21.9 120.94-21.9L120.94-21.9Q119.14-21.9 117.44-20.88 115.74-19.85 114.64-17.68 113.54-15.5 113.54-12.1L113.54-12.1Q113.54-8.85 114.69-6.7 115.84-4.55 117.77-3.45 119.69-2.35 121.99-2.35L121.99-2.35Q123.79-2.35 125.29-2.9 126.79-3.45 128.14-4.3L128.14-4.3 129.49-1.9Q127.94-0.9 126.02-0.15 124.09 0.6 121.54 0.6ZM155.09 0L146.88 0 146.88-32.85 154.94-32.85Q159.98-32.85 163.41-30.93 166.84-29 168.56-25.35 170.28-21.7 170.28-16.55L170.28-16.55Q170.28-11.4 168.56-7.68 166.84-3.95 163.44-1.98 160.03 0 155.09 0L155.09 0ZM150.59-29.8L150.59-3.05 154.63-3.05Q158.63-3.05 161.26-4.7 163.88-6.35 165.19-9.35 166.49-12.35 166.49-16.55L166.49-16.55Q166.49-20.75 165.19-23.7 163.88-26.65 161.26-28.23 158.63-29.8 154.63-29.8L154.63-29.8 150.59-29.8ZM186.43 0.6L186.43 0.6Q183.48 0.6 180.93-0.9 178.38-2.4 176.83-5.23 175.28-8.05 175.28-12.1L175.28-12.1Q175.28-16.1 176.83-18.98 178.38-21.85 180.93-23.35 183.48-24.85 186.43-24.85L186.43-24.85Q189.38-24.85 191.91-23.35 194.43-21.85 196.01-18.98 197.58-16.1 197.58-12.1L197.58-12.1Q197.58-8.05 196.01-5.23 194.43-2.4 191.91-0.9 189.38 0.6 186.43 0.6ZM186.43-2.45L186.43-2.45Q188.63-2.45 190.31-3.65 191.98-4.85 192.91-7.03 193.83-9.2 193.83-12.1L193.83-12.1Q193.83-14.95 192.91-17.15 191.98-19.35 190.31-20.58 188.63-21.8 186.43-21.8L186.43-21.8Q184.28-21.8 182.61-20.58 180.93-19.35 180.01-17.15 179.08-14.95 179.08-12.1L179.08-12.1Q179.08-9.2 180.01-7.03 180.93-4.85 182.61-3.65 184.28-2.45 186.43-2.45ZM213.58 0.6L213.58 0.6Q210.38 0.6 207.83-0.9 205.28-2.4 203.78-5.23 202.28-8.05 202.28-12.1L202.28-12.1Q202.28-16.1 203.91-18.98 205.53-21.85 208.13-23.35 210.73-24.85 213.83-24.85L213.83-24.85Q216.23-24.85 217.93-23.98 219.63-23.1 220.88-21.95L220.88-21.95 218.98-19.55Q217.93-20.55 216.71-21.18 215.48-21.8 213.98-21.8L213.98-21.8Q211.68-21.8 209.91-20.58 208.13-19.35 207.11-17.15 206.08-14.95 206.08-12.1L206.08-12.1Q206.08-9.2 207.06-7.03 208.03-4.85 209.78-3.65 211.53-2.45 213.88-2.45L213.88-2.45Q215.63-2.45 217.13-3.18 218.63-3.9 219.78-4.95L219.78-4.95 221.38-2.5Q219.78-1.05 217.78-0.23 215.78 0.6 213.58 0.6ZM234.23 0.6L234.23 0.6Q230.43 0.6 228.98-1.6 227.53-3.8 227.53-7.3L227.53-7.3 227.53-21.25 223.88-21.25 223.88-24 227.68-24.25 228.13-31.1 231.18-31.1 231.18-24.25 237.83-24.25 237.83-21.25 231.18-21.25 231.18-7.2Q231.18-4.95 232-3.68 232.83-2.4 235.03-2.4L235.03-2.4Q235.68-2.4 236.45-2.6 237.23-2.8 237.83-3.05L237.83-3.05 238.58-0.3Q237.58 0.05 236.4 0.33 235.23 0.6 234.23 0.6ZM252.68 0.6L252.68 0.6Q249.73 0.6 247.18-0.9 244.63-2.4 243.08-5.23 241.53-8.05 241.53-12.1L241.53-12.1Q241.53-16.1 243.08-18.98 244.63-21.85 247.18-23.35 249.73-24.85 252.68-24.85L252.68-24.85Q255.63-24.85 258.15-23.35 260.68-21.85 262.25-18.98 263.82-16.1 263.82-12.1L263.82-12.1Q263.82-8.05 262.25-5.23 260.68-2.4 258.15-0.9 255.63 0.6 252.68 0.6ZM252.68-2.45L252.68-2.45Q254.88-2.45 256.55-3.65 258.23-4.85 259.15-7.03 260.07-9.2 260.07-12.1L260.07-12.1Q260.07-14.95 259.15-17.15 258.23-19.35 256.55-20.58 254.88-21.8 252.68-21.8L252.68-21.8Q250.53-21.8 248.85-20.58 247.18-19.35 246.25-17.15 245.33-14.95 245.33-12.1L245.33-12.1Q245.33-9.2 246.25-7.03 247.18-4.85 248.85-3.65 250.53-2.45 252.68-2.45ZM274.02 0L270.42 0 270.42-24.25 273.42-24.25 273.72-19.8 273.87-19.8Q275.12-22.1 276.9-23.48 278.67-24.85 280.77-24.85L280.77-24.85Q281.52-24.85 282.12-24.73 282.72-24.6 283.27-24.35L283.27-24.35 282.57-21.15Q281.97-21.35 281.5-21.45 281.02-21.55 280.27-21.55L280.27-21.55Q278.72-21.55 277.02-20.28 275.32-19 274.02-15.8L274.02-15.8 274.02 0ZM293.62 0.6L293.62 0.6Q291.02 0.6 288.67-0.38 286.32-1.35 284.62-2.75L284.62-2.75 286.47-5.2Q288.02-3.95 289.75-3.1 291.47-2.25 293.77-2.25L293.77-2.25Q296.27-2.25 297.52-3.45 298.77-4.65 298.77-6.3L298.77-6.3Q298.77-7.6 297.92-8.47 297.07-9.35 295.8-9.98 294.52-10.6 293.12-11.1L293.12-11.1Q291.42-11.7 289.72-12.55 288.02-13.4 286.9-14.7 285.77-16 285.77-18.05L285.77-18.05Q285.77-20.9 287.94-22.88 290.12-24.85 294.02-24.85L294.02-24.85Q296.22-24.85 298.12-24.05 300.02-23.25 301.37-22.15L301.37-22.15 299.62-19.8Q298.37-20.7 297.05-21.33 295.72-21.95 294.02-21.95L294.02-21.95Q291.62-21.95 290.47-20.83 289.32-19.7 289.32-18.25L289.32-18.25Q289.32-17.05 290.1-16.28 290.87-15.5 292.12-14.95 293.37-14.4 294.77-13.85L294.77-13.85Q296.57-13.2 298.3-12.38 300.02-11.55 301.17-10.2 302.32-8.85 302.32-6.5L302.32-6.5Q302.32-4.6 301.32-2.98 300.32-1.35 298.37-0.38 296.42 0.6 293.62 0.6ZM323.72 0.6L323.72 0.6Q321.72 0.6 320.12-0.2 318.52-1 317.57-2.53 316.62-4.05 316.62-6.2L316.62-6.2Q316.62-10.2 320.24-12.33 323.87-14.45 331.72-15.3L331.72-15.3Q331.72-16.9 331.29-18.43 330.87-19.95 329.74-20.88 328.62-21.8 326.52-21.8L326.52-21.8Q324.32-21.8 322.44-20.95 320.57-20.1 319.17-19.15L319.17-19.15 317.72-21.65Q318.77-22.35 320.22-23.1 321.67-23.85 323.42-24.35 325.17-24.85 327.12-24.85L327.12-24.85Q330.02-24.85 331.84-23.6 333.67-22.35 334.49-20.15 335.32-17.95 335.32-15L335.32-15 335.32 0 332.32 0 332.02-2.95 331.87-2.95Q330.12-1.5 328.07-0.45 326.02 0.6 323.72 0.6ZM324.67-2.35L324.67-2.35Q326.52-2.35 328.17-3.23 329.82-4.1 331.72-5.75L331.72-5.75 331.72-12.85Q327.42-12.35 324.92-11.48 322.42-10.6 321.32-9.35 320.22-8.1 320.22-6.45L320.22-6.45Q320.22-4.3 321.54-3.33 322.87-2.35 324.67-2.35ZM346.86 0L343.26 0 343.26-24.25 346.26-24.25 346.56-20.65 346.71-20.65Q348.46-22.45 350.44-23.65 352.41-24.85 354.86-24.85L354.86-24.85Q358.71-24.85 360.49-22.45 362.26-20.05 362.26-15.4L362.26-15.4 362.26 0 358.61 0 358.61-14.95Q358.61-18.45 357.49-20.05 356.36-21.65 353.81-21.65L353.81-21.65Q351.86-21.65 350.34-20.68 348.81-19.7 346.86-17.75L346.86-17.75 346.86 0ZM378.56 0.6L378.56 0.6Q374.06 0.6 371.34-2.73 368.61-6.05 368.61-12.1L368.61-12.1Q368.61-16 370.09-18.85 371.56-21.7 373.96-23.28 376.36-24.85 379.16-24.85L379.16-24.85Q381.31-24.85 382.89-24.1 384.46-23.35 386.06-22L386.06-22 385.91-26.2 385.91-35.7 389.51-35.7 389.51 0 386.51 0 386.21-2.95 386.06-2.95Q384.66-1.5 382.74-0.45 380.81 0.6 378.56 0.6ZM379.36-2.5L379.36-2.5Q381.11-2.5 382.71-3.38 384.31-4.25 385.91-5.95L385.91-5.95 385.91-19.1Q384.26-20.55 382.79-21.15 381.31-21.75 379.71-21.75L379.71-21.75Q377.66-21.75 375.99-20.53 374.31-19.3 373.34-17.13 372.36-14.95 372.36-12.1L372.36-12.1Q372.36-7.65 374.19-5.08 376.01-2.5 379.36-2.5ZM412.06 0L408.36 0 408.36-32.85 417.46-32.85Q421.11-32.85 423.86-31.95 426.61-31.05 428.13-28.95 429.66-26.85 429.66-23.3L429.66-23.3Q429.66-19.9 428.16-17.7 426.66-15.5 423.96-14.4 421.26-13.3 417.66-13.3L417.66-13.3 412.06-13.3 412.06 0ZM412.06-29.85L412.06-16.35 417.11-16.35Q421.61-16.35 423.78-18.03 425.96-19.7 425.96-23.3L425.96-23.3Q425.96-27 423.68-28.43 421.41-29.85 416.91-29.85L416.91-29.85 412.06-29.85ZM441.6 0.6L441.6 0.6Q439.6 0.6 438-0.2 436.4-1 435.45-2.53 434.5-4.05 434.5-6.2L434.5-6.2Q434.5-10.2 438.13-12.33 441.75-14.45 449.6-15.3L449.6-15.3Q449.6-16.9 449.18-18.43 448.75-19.95 447.63-20.88 446.5-21.8 444.4-21.8L444.4-21.8Q442.2-21.8 440.33-20.95 438.45-20.1 437.05-19.15L437.05-19.15 435.6-21.65Q436.65-22.35 438.1-23.1 439.55-23.85 441.3-24.35 443.05-24.85 445-24.85L445-24.85Q447.9-24.85 449.73-23.6 451.55-22.35 452.38-20.15 453.2-17.95 453.2-15L453.2-15 453.2 0 450.2 0 449.9-2.95 449.75-2.95Q448-1.5 445.95-0.45 443.9 0.6 441.6 0.6ZM442.55-2.35L442.55-2.35Q444.4-2.35 446.05-3.23 447.7-4.1 449.6-5.75L449.6-5.75 449.6-12.85Q445.3-12.35 442.8-11.48 440.3-10.6 439.2-9.35 438.1-8.1 438.1-6.45L438.1-6.45Q438.1-4.3 439.43-3.33 440.75-2.35 442.55-2.35ZM468.5 0.6L468.5 0.6Q464.7 0.6 463.25-1.6 461.8-3.8 461.8-7.3L461.8-7.3 461.8-21.25 458.15-21.25 458.15-24 461.95-24.25 462.4-31.1 465.45-31.1 465.45-24.25 472.1-24.25 472.1-21.25 465.45-21.25 465.45-7.2Q465.45-4.95 466.28-3.68 467.1-2.4 469.3-2.4L469.3-2.4Q469.95-2.4 470.73-2.6 471.5-2.8 472.1-3.05L472.1-3.05 472.85-0.3Q471.85 0.05 470.68 0.33 469.5 0.6 468.5 0.6ZM481.3 0L477.7 0 477.7-24.25 481.3-24.25 481.3 0ZM479.55-29.45L479.55-29.45Q478.5-29.45 477.77-30.15 477.05-30.85 477.05-32L477.05-32Q477.05-33.05 477.77-33.75 478.5-34.45 479.55-34.45L479.55-34.45Q480.65-34.45 481.35-33.75 482.05-33.05 482.05-32L482.05-32Q482.05-30.85 481.35-30.15 480.65-29.45 479.55-29.45ZM499.4 0.6L499.4 0.6Q496.2 0.6 493.6-0.93 491-2.45 489.45-5.28 487.9-8.1 487.9-12.1L487.9-12.1Q487.9-16 489.45-18.88 491-21.75 493.47-23.3 495.95-24.85 498.75-24.85L498.75-24.85Q501.75-24.85 503.9-23.45 506.05-22.05 507.17-19.53 508.3-17 508.3-13.5L508.3-13.5Q508.3-12.95 508.25-12.35 508.2-11.75 508.1-11.3L508.1-11.3 490.75-11.3 490.7-13.95 505.05-13.95Q505.05-17.85 503.4-19.88 501.75-21.9 498.8-21.9L498.8-21.9Q497-21.9 495.3-20.88 493.6-19.85 492.5-17.68 491.4-15.5 491.4-12.1L491.4-12.1Q491.4-8.85 492.55-6.7 493.7-4.55 495.62-3.45 497.55-2.35 499.85-2.35L499.85-2.35Q501.65-2.35 503.15-2.9 504.65-3.45 506-4.3L506-4.3 507.35-1.9Q505.8-0.9 503.87-0.15 501.95 0.6 499.4 0.6ZM517.99 0L514.39 0 514.39-24.25 517.39-24.25 517.69-20.65 517.84-20.65Q519.59-22.45 521.57-23.65 523.54-24.85 525.99-24.85L525.99-24.85Q529.84-24.85 531.62-22.45 533.39-20.05 533.39-15.4L533.39-15.4 533.39 0 529.74 0 529.74-14.95Q529.74-18.45 528.62-20.05 527.49-21.65 524.94-21.65L524.94-21.65Q522.99-21.65 521.47-20.68 519.94-19.7 517.99-17.75L517.99-17.75 517.99 0ZM548.89 0.6L548.89 0.6Q545.09 0.6 543.64-1.6 542.19-3.8 542.19-7.3L542.19-7.3 542.19-21.25 538.54-21.25 538.54-24 542.34-24.25 542.79-31.1 545.84-31.1 545.84-24.25 552.49-24.25 552.49-21.25 545.84-21.25 545.84-7.2Q545.84-4.95 546.67-3.68 547.49-2.4 549.69-2.4L549.69-2.4Q550.34-2.4 551.12-2.6 551.89-2.8 552.49-3.05L552.49-3.05 553.24-0.3Q552.24 0.05 551.07 0.33 549.89 0.6 548.89 0.6ZM564.29 0.6L564.29 0.6Q561.69 0.6 559.34-0.38 556.99-1.35 555.29-2.75L555.29-2.75 557.14-5.2Q558.69-3.95 560.41-3.1 562.14-2.25 564.44-2.25L564.44-2.25Q566.94-2.25 568.19-3.45 569.44-4.65 569.44-6.3L569.44-6.3Q569.44-7.6 568.59-8.47 567.74-9.35 566.46-9.98 565.19-10.6 563.79-11.1L563.79-11.1Q562.09-11.7 560.39-12.55 558.69-13.4 557.56-14.7 556.44-16 556.44-18.05L556.44-18.05Q556.44-20.9 558.61-22.88 560.79-24.85 564.69-24.85L564.69-24.85Q566.89-24.85 568.79-24.05 570.69-23.25 572.04-22.15L572.04-22.15 570.29-19.8Q569.04-20.7 567.71-21.33 566.39-21.95 564.69-21.95L564.69-21.95Q562.29-21.95 561.14-20.83 559.99-19.7 559.99-18.25L559.99-18.25Q559.99-17.05 560.76-16.28 561.54-15.5 562.79-14.95 564.04-14.4 565.44-13.85L565.44-13.85Q567.24-13.2 568.96-12.38 570.69-11.55 571.84-10.2 572.99-8.85 572.99-6.5L572.99-6.5Q572.99-4.6 571.99-2.98 570.99-1.35 569.04-0.38 567.09 0.6 564.29 0.6ZM592.58 0L589.23 0 589.23-32.85 593.78-32.85 600.23-14.85Q600.83-13.15 601.43-11.4 602.03-9.65 602.63-7.9L602.63-7.9 602.83-7.9Q603.43-9.65 604.01-11.4 604.58-13.15 605.18-14.85L605.18-14.85 611.53-32.85 616.13-32.85 616.13 0 612.68 0 612.68-19Q612.68-20.4 612.76-22.05 612.83-23.7 612.93-25.38 613.03-27.05 613.13-28.5L613.13-28.5 612.93-28.5 610.33-21.05 603.93-3.4 601.33-3.4 594.88-21.05 592.28-28.5 592.08-28.5Q592.18-27.05 592.31-25.38 592.43-23.7 592.51-22.05 592.58-20.4 592.58-19L592.58-19 592.58 0ZM634.53 0.6L634.53 0.6Q631.33 0.6 628.73-0.93 626.13-2.45 624.58-5.28 623.03-8.1 623.03-12.1L623.03-12.1Q623.03-16 624.58-18.88 626.13-21.75 628.6-23.3 631.08-24.85 633.88-24.85L633.88-24.85Q636.88-24.85 639.03-23.45 641.18-22.05 642.3-19.53 643.43-17 643.43-13.5L643.43-13.5Q643.43-12.95 643.38-12.35 643.33-11.75 643.23-11.3L643.23-11.3 625.88-11.3 625.83-13.95 640.18-13.95Q640.18-17.85 638.53-19.88 636.88-21.9 633.93-21.9L633.93-21.9Q632.13-21.9 630.43-20.88 628.73-19.85 627.63-17.68 626.53-15.5 626.53-12.1L626.53-12.1Q626.53-8.85 627.68-6.7 628.83-4.55 630.75-3.45 632.68-2.35 634.98-2.35L634.98-2.35Q636.78-2.35 638.28-2.9 639.78-3.45 641.13-4.3L641.13-4.3 642.48-1.9Q640.93-0.9 639-0.15 637.08 0.6 634.53 0.6ZM659.13 0.6L659.13 0.6Q655.93 0.6 653.33-0.93 650.73-2.45 649.18-5.28 647.63-8.1 647.63-12.1L647.63-12.1Q647.63-16 649.18-18.88 650.73-21.75 653.2-23.3 655.68-24.85 658.48-24.85L658.48-24.85Q661.48-24.85 663.63-23.45 665.78-22.05 666.9-19.53 668.03-17 668.03-13.5L668.03-13.5Q668.03-12.95 667.98-12.35 667.93-11.75 667.83-11.3L667.83-11.3 650.48-11.3 650.43-13.95 664.78-13.95Q664.78-17.85 663.13-19.88 661.48-21.9 658.53-21.9L658.53-21.9Q656.73-21.9 655.03-20.88 653.33-19.85 652.23-17.68 651.13-15.5 651.13-12.1L651.13-12.1Q651.13-8.85 652.28-6.7 653.43-4.55 655.35-3.45 657.28-2.35 659.58-2.35L659.58-2.35Q661.38-2.35 662.88-2.9 664.38-3.45 665.73-4.3L665.73-4.3 667.08-1.9Q665.53-0.9 663.6-0.15 661.68 0.6 659.13 0.6ZM681.47 0.6L681.47 0.6Q677.67 0.6 676.22-1.6 674.77-3.8 674.77-7.3L674.77-7.3 674.77-21.25 671.12-21.25 671.12-24 674.92-24.25 675.37-31.1 678.42-31.1 678.42-24.25 685.07-24.25 685.07-21.25 678.42-21.25 678.42-7.2Q678.42-4.95 679.25-3.68 680.07-2.4 682.27-2.4L682.27-2.4Q682.92-2.4 683.7-2.6 684.47-2.8 685.07-3.05L685.07-3.05 685.82-0.3Q684.82 0.05 683.65 0.33 682.47 0.6 681.47 0.6ZM692.47 0.6L692.47 0.6Q691.37 0.6 690.55-0.2 689.72-1 689.72-2.3L689.72-2.3Q689.72-3.65 690.55-4.45 691.37-5.25 692.47-5.25L692.47-5.25Q693.62-5.25 694.42-4.45 695.22-3.65 695.22-2.3L695.22-2.3Q695.22-1 694.42-0.2 693.62 0.6 692.47 0.6Z" opacity="1" transform="matrix(1,0,0,1,0,0)" fill="#ffccea" class="slogan-text-1" data-fill-palette-color="secondary" id="text-1"></path></svg></g></svg></g></svg></g></svg></g><g transform="matrix(1,0,0,1,124.07752620564217,0)"><svg viewBox="0 0 149.34254758871563 168.2523009643988" height="168.2523009643988" width="149.34254758871563"><g><svg xmlns="http://www.w3.org/2000/svg" xmlns:xlink="http://www.w3.org/1999/xlink" version="1.1" x="0" y="0" viewBox="0 0 100 112.662" enable-background="new 0 0 100 112.662" xml:space="preserve" id="icon-0" width="149.34254758871563" height="168.2523009643988" class="icon-icon-0" data-fill-palette-color="accent"><g fill="#ffccea" data-fill-palette-color="accent"><path d="M72.528 51.2A31.6 31.6 0 0 1 81.019 67.018C84.839 67.337 87.841 70.534 87.841 74.435A7.449 7.449 0 1 1 72.943 74.435C72.943 70.962 75.323 68.054 78.539 67.229 76.874 59.454 72.179 52.684 65.763 48.4 65.7 48.379 65.639 48.356 65.576 48.336L49.524 76.782 34.306 48.373C33.125 48.761 31.963 49.193 30.823 49.665 24.608 54.679 21.111 62.516 20.822 72.157 27.133 72.709 32.14 80.512 32.14 90.086L29.806 92.07A1.944 1.944 0 1 1 28.176 91.183C28.551 91.183 28.899 91.294 29.197 91.479L31.202 90.086C31.202 80.93 26.237 73.507 20.112 73.507S9.022 80.93 9.022 90.086L10.857 91.36C11.102 91.249 11.373 91.182 11.66 91.182A1.944 1.944 0 1 1 9.715 93.126C9.715 92.646 9.896 92.211 10.185 91.872L8.083 90.085C8.083 81.048 12.546 73.591 18.354 72.315 18.647 64.089 21.071 56.662 26.479 51.194 11.451 58.743 1.731 73.601 0 91.108 9.946 106.479 28.612 112.662 50 112.662 71.387 112.662 90.054 106.479 100 91.109 98.269 73.603 87.551 58.749 72.528 51.2M70.412 92.21H65.427V97.194H61.178V92.21H56.193V87.961H61.178V82.976H65.427V87.961H70.412z" fill="#ffccea" data-fill-palette-color="accent"></path><path d="M81.441 69.662A5 5 0 0 0 80.392 69.543C79.893 69.543 79.42 69.64 78.966 69.778 76.964 70.391 75.498 72.232 75.498 74.435A4.895 4.895 0 1 0 85.285 74.435 4.89 4.89 0 0 0 81.441 69.662" fill="#ffccea" data-fill-palette-color="accent"></path><path d="M50 0C36.652 0 25.832 10.82 25.832 24.167 25.832 32.744 30.304 40.271 37.039 44.561 37.514 44.863 37.996 45.155 38.492 45.424A24.1 24.1 0 0 0 50.001 48.335 24.06 24.06 0 0 0 62.962 44.56C69.696 40.271 74.168 32.743 74.168 24.166 74.167 10.82 63.347 0 50 0" fill="#ffccea" data-fill-palette-color="accent"></path></g></svg></g></svg></g><g></g></svg></g><defs></defs></svg><rect width="278.3628449968034" height="247.2" fill="none" stroke="none" visibility="hidden"></rect></g></svg></g></svg>